<svg width="350" height="477" viewBox="0 0 350 477" fill="none" xmlns="http://www.w3.org/2000/svg">
<path d="M88.1912 418.062L107.614 401.223C107.837 401.031 108.013 400.792 108.131 400.522C108.248 400.252 108.304 399.959 108.292 399.665C108.281 399.371 108.204 399.084 108.066 398.824C107.928 398.564 107.734 398.338 107.497 398.164L97.3736 390.644C97.0037 390.37 96.5517 390.23 96.0919 390.247C95.632 390.265 95.1916 390.437 94.8429 390.738C74.9736 406.195 64.8234 414.033 64.3902 414.259L53.5785 419.877C52.4731 420.451 51.5078 421.262 50.7512 422.252C50.0795 423.129 49.5895 424.131 49.3098 425.2C49.0301 426.269 48.9663 427.383 49.1222 428.477C49.2781 429.571 49.6505 430.623 50.2176 431.571C50.7848 432.519 51.5353 433.345 52.4253 434L100.31 469.852C100.911 470.299 101.713 470.378 102.39 470.055L112.398 465.29C113.005 465.003 113.346 464.197 113.426 462.88C109.971 452.732 101.188 441.512 95.7093 436.199C94.3044 434.837 91.8888 432.802 88.4624 430.088C87.6587 429.452 86.9882 428.663 86.4891 427.768C85.99 426.873 85.6721 425.888 85.5536 424.87C85.4351 423.852 85.5183 422.821 85.7985 421.835C86.0786 420.849 86.5502 419.928 87.1863 419.124C87.4868 418.736 87.8244 418.38 88.1912 418.062Z" fill="#FFC62E"/>
<path d="M62.9869 408.007C64.911 406.535 66.8317 405.058 68.7489 403.576C73.8025 399.674 81.2757 393.873 91.1645 386.183C92.5232 385.067 94.2158 384.438 95.9733 384.395C97.7307 384.352 99.4522 384.897 100.864 385.945L110.987 393.463C111.928 394.16 112.7 395.06 113.246 396.095C113.793 397.131 114.099 398.276 114.144 399.446C114.188 400.616 113.969 401.781 113.503 402.855C113.036 403.929 112.335 404.884 111.449 405.65L92.0269 422.487C91.8097 422.675 91.6367 422.909 91.5202 423.172C91.4038 423.434 91.3468 423.72 91.3533 424.007C91.3599 424.294 91.4297 424.576 91.558 424.834C91.6862 425.091 91.8697 425.316 92.0952 425.494C95.664 428.316 98.2025 430.46 99.783 431.992C107.328 439.303 115.623 451.166 118.967 460.987L119.338 462.078L119.268 463.231C119.073 466.45 117.927 469.133 114.913 470.571L104.905 475.336C103.609 475.952 102.17 476.203 100.742 476.062C99.3143 475.921 97.9519 475.394 96.8015 474.536L48.9342 438.692C47.4214 437.575 46.1462 436.168 45.183 434.553C44.2197 432.938 43.5877 431.147 43.3238 429.286C43.0599 427.424 43.1694 425.528 43.6458 423.709C44.1223 421.89 44.9563 420.184 46.0991 418.69C47.3788 417.018 49.0109 415.649 50.8796 414.679L61.3518 409.237C61.8494 408.868 62.343 408.495 62.9869 408.007ZM98.6747 395.161L98.5147 395.289C98.5693 395.246 98.624 395.205 98.6747 395.161ZM91.6347 440.394C90.4035 439.202 88.1128 437.266 84.8289 434.667C83.254 433.42 81.9735 431.841 81.0786 430.043C80.1837 428.245 79.6964 426.271 79.6515 424.263C79.6066 422.255 80.0052 420.262 80.8188 418.425C81.6324 416.589 82.8411 414.955 84.3586 413.639L100.121 399.972L96.222 397.079C74.5615 413.925 68.0308 418.962 67.0884 419.451L56.2767 425.069C55.9342 425.247 55.6351 425.498 55.4006 425.804C54.5576 426.903 54.7781 428.448 55.9333 429.307L101.959 463.769L106.608 461.553C103.321 454.247 97.1235 445.713 91.6347 440.394Z" fill="#524F75"/>
<path d="M272.049 423.944L253.069 395.036C252.804 394.63 252.398 394.336 251.929 394.212C251.46 394.088 250.962 394.141 250.531 394.363L239.366 400.102C238.267 400.822 238.019 402.055 238.618 402.972L270.847 462.668C271.256 463.821 271.909 464.873 272.761 465.752C273.53 466.546 274.45 467.18 275.466 467.616C276.482 468.051 277.574 468.281 278.68 468.292C279.786 468.302 280.882 468.093 281.906 467.676C282.93 467.259 283.862 466.643 284.646 465.864L327.481 423.419C328.302 422.474 328.215 421.22 327.393 420.5C321.697 415.747 318.654 413.407 318.261 413.479C307.409 415.458 298.913 418.826 292.775 423.587C291.7 424.435 290.655 425.322 289.643 426.244V426.242C288.388 427.365 286.905 428.205 285.296 428.703C283.687 429.2 281.989 429.345 280.319 429.127C278.648 428.909 277.045 428.333 275.618 427.438C274.19 426.544 272.973 425.352 272.049 423.944Z" fill="#FFC62E"/>
<path d="M236.161 395.208L236.421 395.038L247.857 389.157C249.573 388.275 251.555 388.059 253.421 388.551C255.287 389.043 256.905 390.207 257.964 391.821L276.943 420.73C277.406 421.434 278.015 422.03 278.729 422.477C279.442 422.924 280.244 423.212 281.079 423.321C281.915 423.43 282.764 423.357 283.568 423.108C284.373 422.859 285.114 422.439 285.742 421.877C286.857 420.862 288.008 419.887 289.193 418.954C296.153 413.557 305.509 409.85 317.217 407.715C318.194 407.525 319.204 407.592 320.147 407.91C320.524 408.031 320.852 408.174 321.172 408.334C321.539 408.523 321.894 408.734 322.282 408.989C322.85 409.362 323.544 409.873 324.409 410.537C326.005 411.764 328.245 413.581 331.256 416.096C334.569 419.001 334.778 423.947 331.903 427.257L331.607 427.575L288.772 470.02C287.438 471.343 285.855 472.389 284.114 473.097C282.374 473.804 280.51 474.16 278.631 474.142C276.752 474.125 274.896 473.735 273.168 472.995C271.441 472.255 269.878 471.18 268.569 469.832C267.245 468.475 266.206 466.866 265.513 465.101L233.554 405.902C231.345 402.226 232.549 397.575 236.161 395.208ZM296.364 428.213C295.677 428.745 294.733 429.547 293.552 430.607C286.327 437.073 275.223 436.461 268.754 429.235C268.171 428.586 267.638 427.893 267.16 427.163L250.099 401.177L245.566 403.506L276.222 460.291L276.372 460.72C276.501 461.081 276.705 461.409 276.969 461.678C277.199 461.918 277.475 462.109 277.78 462.24C278.085 462.372 278.413 462.442 278.745 462.445C279.077 462.448 279.407 462.385 279.714 462.259C280.021 462.134 280.301 461.948 280.536 461.713L320.343 422.267C319.334 421.44 318.313 420.626 317.281 419.828C317.217 419.78 317.154 419.729 317.088 419.682C308.179 421.526 301.283 424.402 296.364 428.213Z" fill="#524F75"/>
<path d="M132.465 238.959C71.7625 233.948 50.5859 221.858 46.5196 205.548C42.4532 189.238 74.2347 171.522 132.336 154.531" fill="#8A36EA"/>
<path d="M134.322 231.146C80.3102 229.524 56.5911 220.884 52.1677 206.42C48.8721 195.637 76.4799 177.499 131.534 158.217C132.259 157.963 132.927 157.568 133.501 157.056C134.074 156.543 134.54 155.923 134.873 155.23C135.207 154.537 135.4 153.786 135.443 153.018C135.486 152.25 135.377 151.482 135.123 150.756C134.869 150.031 134.474 149.363 133.962 148.789C133.449 148.216 132.829 147.75 132.136 147.417C131.443 147.083 130.692 146.89 129.924 146.847C129.156 146.804 128.388 146.913 127.662 147.167C65.5512 168.921 34.6633 189.214 40.9697 209.842C47.4185 230.937 75.2838 241.087 133.969 242.847C134.741 242.878 135.513 242.755 136.238 242.486C136.963 242.217 137.627 241.807 138.193 241.279C138.759 240.752 139.214 240.117 139.533 239.413C139.852 238.708 140.028 237.948 140.052 237.175C140.075 236.402 139.945 235.632 139.669 234.909C139.393 234.187 138.977 233.526 138.444 232.966C137.911 232.405 137.272 231.955 136.565 231.643C135.857 231.331 135.095 231.162 134.322 231.146Z" fill="#524F75"/>
<path d="M61.4891 392.419C83.8949 406.185 131.889 415.225 172.595 415.606C189.702 415.764 220.619 412.055 265.356 404.478C291.911 397.028 311.155 387.161 314.256 348.935C318.761 293.354 319.497 257.13 316.453 240.265C313.992 226.609 309.657 202.712 303.442 168.575C294.515 119.53 252.01 83.9023 202.418 83.9023H179.233C129.971 83.9023 87.6491 119.073 78.373 167.717L55.9223 293.838C54.0335 304.449 43.9008 311.518 33.292 309.631C30.8802 309.2 28.5709 308.32 26.4842 307.036L21.5164 303.982C17.1769 301.744 9.39153 304.831 6.41202 309.465C3.4325 314.099 9.78957 337.53 14.8491 346.326C19.9105 355.11 39.0813 378.655 61.4891 392.419Z" fill="#8A36EA"/>
<path d="M58.4234 397.409C38.8253 385.368 17.7034 363.017 9.7736 349.237C3.15506 337.733 -2.88982 313.099 1.48677 306.291C6.05457 299.184 17.0302 295.079 24.197 298.771L29.5512 302.047C31.447 303.214 33.5993 303.9 35.8208 304.045C38.0423 304.19 40.2656 303.79 42.2972 302.88C44.3287 301.969 46.1069 300.576 47.477 298.821C48.8471 297.066 49.7674 295.003 50.158 292.812L72.6224 166.621C82.4234 115.221 127.157 78.0488 179.233 78.0488H202.417C254.841 78.0488 299.77 115.705 309.2 167.528C315.415 201.668 319.75 225.567 322.213 239.229C325.374 256.771 324.634 293.303 320.086 349.409C318.503 368.939 312.796 382.732 302.654 392.468C294.217 400.566 283.672 405.419 266.933 410.113C221.27 417.879 190.092 421.62 172.537 421.456C129.106 421.056 81.0809 411.327 58.4234 397.409ZM11.5941 315.438C11.8126 317.992 12.4097 321.3 13.3014 324.935C15.077 332.172 17.7697 339.653 19.9238 343.399C26.9053 355.53 46.6692 376.445 64.5541 387.43C85.0595 400.029 131.151 409.362 172.65 409.748C189.268 409.901 219.83 406.242 264.072 398.753C278.935 394.564 287.867 390.427 294.548 384.018C302.455 376.425 307.052 365.313 308.419 348.453C312.882 293.395 313.606 257.483 310.691 241.296C308.228 227.643 303.895 203.75 297.68 169.616C289.262 123.356 249.175 89.7561 202.417 89.7561H179.233C132.786 89.7561 92.8741 122.925 84.1365 168.743L61.6858 294.862C59.2312 308.654 46.0585 317.846 32.2673 315.391C29.131 314.834 26.1282 313.689 23.4165 312.018L18.7238 309.13C17.3404 308.615 13.2487 310.142 11.5687 312.297C11.4751 313.243 11.4907 314.23 11.5941 315.438Z" fill="#524F75"/>
<path d="M298.01 171.49C302.247 194.545 306.465 217.603 310.662 240.665C313.62 256.936 312.906 291.888 308.524 345.52C305.509 382.403 286.797 391.925 260.97 399.114C217.468 406.425 187.398 410.005 170.762 409.851C159.603 409.748 147.158 408.675 134.684 407.008C136.567 404.751 138.771 402.783 141.226 401.166C160.639 388.378 172.697 351.541 174.596 339.988C178.455 316.505 178.851 287.982 178.594 205.082C178.457 160.897 210.186 123.049 253.718 115.473C257.634 114.79 261.602 114.458 265.577 114.48C282.53 129.264 293.965 149.363 298.01 171.49Z" fill="white"/>
<path d="M276.352 167.917C276.352 172.565 277.084 177.167 278.507 181.462C279.929 185.756 282.015 189.658 284.644 192.945C287.273 196.231 290.394 198.839 293.829 200.617C297.264 202.396 300.946 203.312 304.664 203.312C308.382 203.312 312.063 202.396 315.498 200.617C318.933 198.839 322.054 196.231 324.683 192.945C327.313 189.658 329.398 185.756 330.821 181.462C332.244 177.167 332.976 172.565 332.976 167.917C332.976 163.268 332.244 158.666 330.821 154.371C329.398 150.077 327.313 146.175 324.683 142.888C322.054 139.602 318.933 136.995 315.498 135.216C312.063 133.437 308.382 132.521 304.664 132.521C300.946 132.521 297.264 133.437 293.829 135.216C290.394 136.995 287.273 139.602 284.644 142.888C282.015 146.175 279.929 150.077 278.507 154.371C277.084 158.666 276.352 163.268 276.352 167.917Z" fill="white"/>
<path d="M305.85 200.113C322.377 200.113 335.31 184.634 335.31 166.01C335.31 147.385 322.375 131.906 305.85 131.906C289.323 131.906 276.391 147.385 276.391 166.01C276.391 184.634 289.327 200.113 305.85 200.113ZM305.85 188.406C296.299 188.406 288.098 178.587 288.098 166.01C288.098 153.432 296.303 143.614 305.85 143.614C315.397 143.614 323.602 153.432 323.602 166.01C323.602 178.587 315.397 188.406 305.85 188.406Z" fill="#524F75"/>
<path d="M282.382 252C292.402 251.247 301.069 250.967 316.547 240.01C323.001 235.439 334.691 226.255 340.143 219.957C345.307 213.994 343.656 206.788 340.143 202.011C332.917 192.19 322.11 191.631 309.867 187.954C305.165 186.543 294.314 183.539 280.426 181C283.98 191.2 285.549 203.494 285.122 217.88C284.752 230.44 283.84 241.813 282.382 252Z" fill="#FFDF69"/>
<path d="M291.014 213.632C292.337 202.245 292.436 191.913 291.295 182.631C298.606 184.949 305.15 187.343 310.374 189.491C311.814 190.083 313.293 190.652 315.008 191.281C315.672 191.525 316.345 191.766 317.211 192.079L319.322 192.836C329.437 196.477 333.33 198.869 336.468 204.25C338.871 208.367 338.766 212.744 335.74 215.79C330.983 220.584 320.175 228.364 311.49 233.657C301.441 239.782 294.905 241.856 286.604 242.227C288.345 233.468 289.812 223.938 291.014 213.632ZM279.314 253.964L280.592 253.977C282.337 253.995 283.262 254.001 284.329 253.991C295.888 253.895 304.749 251.476 317.584 243.651C327.012 237.907 338.471 229.655 344.05 224.036C351.199 216.83 351.447 206.685 346.577 198.346C341.664 189.934 335.787 186.319 323.283 181.819L321.16 181.058C320.317 180.756 319.67 180.522 319.041 180.289C317.624 179.775 316.218 179.231 314.823 178.66C307.131 175.499 296.846 171.876 285.445 168.658C281.141 167.443 277.117 171.312 278.167 175.663C280.614 185.829 281.035 198.038 279.383 212.28C277.896 225.078 275.988 236.588 273.658 246.81C273.464 247.663 273.463 248.549 273.656 249.402C273.849 250.256 274.231 251.055 274.774 251.741C275.317 252.427 276.006 252.983 276.792 253.368C277.578 253.752 278.44 253.956 279.314 253.964Z" fill="#524F75"/>
<path d="M215.863 171.819C215.863 181.206 218.846 190.209 224.156 196.847C229.465 203.485 236.667 207.214 244.175 207.214C251.684 207.214 258.886 203.485 264.195 196.847C269.505 190.209 272.488 181.206 272.488 171.819C272.488 162.432 269.505 153.429 264.195 146.791C258.886 140.153 251.684 136.424 244.175 136.424C236.667 136.424 229.465 140.153 224.156 146.791C218.846 153.429 215.863 162.432 215.863 171.819Z" fill="white"/>
<path d="M245.291 213.692C266.189 213.692 282.921 195.46 282.921 173.21C282.921 150.959 266.191 132.727 245.291 132.727C224.39 132.727 207.66 150.959 207.66 173.21C207.66 195.46 224.39 213.692 245.291 213.692ZM245.291 201.985C231.094 201.985 219.367 189.209 219.367 173.21C219.367 157.21 231.092 144.434 245.291 144.434C259.49 144.434 271.213 157.21 271.213 173.21C271.213 189.209 259.486 201.985 245.291 201.985Z" fill="#524F75"/>
<path d="M34.6876 315.958C44.793 318.065 53.0291 318.771 59.5071 318.016C65.7803 317.28 70.631 315.22 74.9608 311.991C76.3637 310.943 79.5305 308.184 79.8388 307.961C80.4616 307.511 80.9895 306.942 81.3924 306.288C81.7952 305.633 82.0652 304.906 82.1868 304.147C82.3084 303.388 82.2792 302.613 82.101 301.865C81.9228 301.117 81.599 300.412 81.1481 299.79C80.6977 299.167 80.1289 298.639 79.4742 298.236C78.8195 297.832 78.0918 297.562 77.3326 297.441C76.5735 297.319 75.7979 297.348 75.0501 297.527C74.3022 297.705 73.5969 298.029 72.9744 298.48C72.1159 299.101 68.8632 301.936 67.9598 302.607C65.2105 304.658 62.274 305.905 58.1432 306.389C53.111 306.978 46.0515 306.369 37.074 304.498C36.3156 304.326 35.5304 304.306 34.7643 304.44C33.9983 304.575 33.2667 304.86 32.6122 305.281C31.9578 305.701 31.3937 306.247 30.9529 306.888C30.5121 307.529 30.2034 308.251 30.0448 309.012C29.8862 309.774 29.881 310.559 30.0294 311.323C30.1778 312.086 30.4769 312.813 30.9091 313.459C31.3414 314.106 31.8981 314.66 32.5469 315.089C33.1956 315.518 33.9234 315.813 34.6876 315.958Z" fill="#524F75"/>
<path d="M109.862 164.818C78.7065 168.666 43.2056 144.543 37.54 125.003C31.8789 105.463 74.6618 120.307 105.815 116.463C136.968 112.616 175.322 100.091 180.982 119.632C186.641 139.173 141.016 160.97 109.862 164.818Z" fill="#DBC8F6"/>
<path d="M124.885 164.225C144.806 158.853 169.249 147.819 188.03 135.668C210.413 121.185 222.697 106.993 219.236 94.1635C216.253 83.101 205.821 80.025 190.113 82.201C179.681 83.6457 170.049 86.3296 146.208 93.829L142.662 94.9426C132.958 97.9855 126.77 99.844 120.656 101.492C115.858 102.786 110.609 103.85 104.777 104.747C98.1636 105.764 91.5344 106.489 81.7672 107.35C57.9036 109.454 54.7555 109.807 47.6127 111.745C36.0009 114.894 29.894 121.296 32.6183 131.408C39.488 156.886 86.4399 174.591 124.885 164.225ZM121.84 152.92C105.114 157.43 86.5491 156.153 70.5492 150.118C56.1628 144.693 46.0126 136.106 43.9249 128.363C43.2859 125.993 44.4993 124.722 50.6798 123.046C56.8076 121.383 60.0503 121.02 82.8 119.013C92.7983 118.132 99.6378 117.385 106.559 116.321C112.796 115.361 118.458 114.213 123.709 112.799C130.013 111.099 136.326 109.203 146.169 106.114L149.724 104.998C172.842 97.7283 182.209 95.1156 191.722 93.7976C202.277 92.336 206.998 93.7288 207.937 97.2122C211.498 110.419 162.932 141.841 121.84 152.92Z" fill="#524F75"/>
<path d="M168.683 130.496C133.111 134.927 106.848 121.687 103.677 108.064C100.502 94.4402 117.021 59.458 173.822 46.6146C230.63 33.7711 257.344 79.7237 261.681 99.9617C266.014 120.201 197.399 128.768 168.683 130.496Z" fill="#DBC8F6"/>
<path d="M177.273 38.4529C168.634 55.5954 159.782 72.44 156.84 84.1519C154.354 94.0578 153.002 110.187 152.787 132.544C152.75 136.624 208.877 133.507 208.575 130.822C206.371 111.195 203.512 95.9824 199.992 85.184C195.993 72.9081 186.074 52.8495 177.273 38.4529ZM175.106 39.7083C151.28 46.4761 133.409 54.2046 120.294 62.9707C107.179 71.735 103.034 89.7292 96.0653 110.518L112.544 129.685C116.229 108.155 120.275 91.3211 124.681 79.186C127.759 70.709 136.414 60.8738 150.644 49.6789C156.783 44.8508 166.892 45.0412 175.106 39.7083ZM186.33 37.2356C214.027 55.0736 225.072 63.4954 229.518 75.6163C233.964 87.7353 238.654 104.19 243.588 124.979L272.188 102.42C270.4 98.9953 270.951 94.7504 269.139 91.6437C258.763 73.8483 247.978 61.2358 236.79 53.8083C223.647 45.0853 210.177 43.9296 186.33 37.2356Z" fill="#C8ADF0"/>
<path d="M169.185 130.229C140.601 133.457 110.115 124.856 106.234 111.414C102.35 97.9755 114.207 64.7439 170.265 48.9441C226.319 33.1453 256.744 75.7048 262.133 95.6854C267.52 115.671 197.771 126.999 169.185 130.229ZM231.578 130.511C243.551 127.135 253.159 123.366 260.144 118.969C270.605 112.377 276.367 103.506 273.438 92.6413C269.482 77.9711 257.798 60.9065 242.101 49.4445C221.6 34.4721 195.957 29.5417 167.086 37.6798C139.33 45.5011 119.04 58.1014 106.596 73.7903C95.8476 87.3446 91.5811 102.888 94.9826 114.664C100.949 135.293 136.44 145.713 170.502 141.864C190.658 139.584 213.569 135.589 231.578 130.511Z" fill="#524F75"/>
<path d="M164.651 39.4838C164.244 37.9775 164.139 36.4057 164.342 34.858C164.545 33.3104 165.051 31.8173 165.832 30.464C166.612 29.1108 167.653 27.9238 168.893 26.971C170.133 26.0181 171.549 25.3181 173.059 24.9108C174.57 24.5035 176.146 24.3969 177.697 24.5972C179.248 24.7974 180.744 25.3006 182.099 26.0779C183.454 26.8552 184.642 27.8915 185.595 29.1275C186.549 30.3635 187.248 31.7751 187.654 33.2816C188.06 34.7879 188.165 36.3598 187.963 37.9074C187.76 39.455 187.254 40.9481 186.473 42.3014C185.692 43.6547 184.652 44.8416 183.412 45.7945C182.172 46.7473 180.756 47.4474 179.246 47.8547C177.735 48.262 176.159 48.3686 174.608 48.1683C173.057 47.968 171.561 47.4649 170.206 46.6875C168.851 45.9102 167.662 44.8739 166.709 43.6379C165.756 42.4019 165.057 40.9903 164.651 39.4838Z" fill="#DBC8F6"/>
<path d="M180.258 51.6208C188.689 49.3476 193.687 40.6844 191.417 32.2669C189.148 23.8495 180.47 18.8735 172.041 21.1461C163.613 23.4188 158.613 32.0825 160.882 40.5C163.15 48.9179 171.829 53.8934 180.258 51.6208ZM178.224 44.0855C177.212 44.3607 176.154 44.4337 175.113 44.3004C174.072 44.1671 173.068 43.83 172.157 43.3084C171.246 42.7869 170.447 42.091 169.805 41.2606C169.163 40.4302 168.691 39.4815 168.416 38.4686C168.145 37.4547 168.076 36.3973 168.213 35.3568C168.351 34.3163 168.692 33.313 169.217 32.4043C169.742 31.4956 170.441 30.6992 171.274 30.0606C172.107 29.422 173.057 28.9537 174.071 28.6824C175.084 28.4069 176.142 28.3336 177.183 28.4669C178.225 28.6001 179.229 28.9372 180.141 29.459C181.052 29.9807 181.851 30.6768 182.493 31.5076C183.135 32.3383 183.607 33.2874 183.882 34.3007C184.153 35.3146 184.222 36.372 184.084 37.4125C183.946 38.453 183.605 39.4562 183.08 40.3648C182.554 41.2734 181.855 42.0696 181.022 42.708C180.189 43.3464 179.238 43.8145 178.224 44.0855Z" fill="#524F75"/>
<path d="M107.106 291.636C46.4031 286.626 25.2265 274.536 21.1602 258.228C17.0939 241.919 48.8753 224.202 106.977 207.211" fill="#8A36EA"/>
<path d="M108.057 285.155C54.1348 281.647 30.7299 272.188 26.8158 257.573C23.8968 246.683 52.1231 229.518 107.817 212.168C108.561 211.948 109.253 211.582 109.855 211.092C110.456 210.602 110.954 209.997 111.319 209.313C111.685 208.629 111.911 207.879 111.984 207.106C112.057 206.334 111.976 205.555 111.745 204.814C111.514 204.073 111.139 203.386 110.64 202.792C110.141 202.198 109.53 201.708 108.84 201.353C108.151 200.997 107.398 200.782 106.624 200.72C105.851 200.658 105.073 200.75 104.336 200.991C41.5007 220.568 9.92408 239.768 15.5065 260.605C21.2158 281.912 48.7104 293.027 107.296 296.833C108.844 296.934 110.37 296.416 111.536 295.392C112.702 294.369 113.414 292.923 113.515 291.375C113.616 289.826 113.098 288.301 112.074 287.135C111.05 285.968 109.605 285.256 108.057 285.155Z" fill="#524F75"/>
<path fill-rule="evenodd" clip-rule="evenodd" d="M269.145 170.075C269.145 180.293 260.862 188.577 250.645 188.577C240.427 188.577 232.145 180.293 232.145 170.075C232.145 159.857 240.427 151.574 250.645 151.574C260.862 151.574 269.145 159.857 269.145 170.075ZM255.089 163.201C257.663 164.085 259.545 165.409 259.176 167.871C258.908 169.675 257.904 170.547 256.571 170.852C258.4 171.801 259.024 173.601 258.444 175.778C257.345 178.91 254.73 179.174 251.254 178.519L250.409 181.887L248.371 181.38L249.204 178.058C248.676 177.927 248.135 177.787 247.579 177.638L246.743 180.976L244.707 180.47L245.55 177.095L241.445 176.063L242.458 173.738C242.458 173.738 243.961 174.135 243.94 174.106C244.517 174.248 244.773 173.874 244.875 173.625L247.162 164.486C247.188 164.054 247.038 163.51 246.212 163.305C246.244 163.282 244.732 162.938 244.732 162.938L245.274 160.769L249.385 161.783L250.221 158.447L252.258 158.954L251.439 162.224C251.988 162.348 252.538 162.474 253.073 162.607L253.886 159.358L255.924 159.864L255.089 163.201ZM250.213 168.767C251.601 169.135 254.622 169.936 255.149 167.835C255.686 165.687 252.751 165.038 251.314 164.72C251.151 164.684 251.007 164.652 250.89 164.623L249.875 168.679C249.972 168.703 250.085 168.733 250.213 168.767ZM248.64 175.296C250.303 175.734 253.939 176.692 254.518 174.378C255.11 172.012 251.584 171.224 249.864 170.839C249.672 170.796 249.502 170.758 249.363 170.724L248.243 175.194C248.357 175.222 248.491 175.257 248.64 175.296Z" fill="#F7931A"/>
<path fill-rule="evenodd" clip-rule="evenodd" d="M321.365 160.183C321.365 167.781 315.206 173.94 307.608 173.94C300.011 173.94 293.852 167.781 293.852 160.183C293.852 152.585 300.011 146.426 307.608 146.426C315.206 146.426 321.365 152.585 321.365 160.183ZM310.913 155.072C312.827 155.729 314.226 156.713 313.952 158.544C313.752 159.885 313.006 160.534 312.015 160.761C313.375 161.466 313.839 162.805 313.408 164.423C312.59 166.753 310.646 166.949 308.061 166.462L307.433 168.966L305.918 168.589L306.537 166.119C306.144 166.021 305.742 165.917 305.329 165.806L304.707 168.289L303.193 167.912L303.82 165.403L300.767 164.636L301.52 162.907C301.52 162.907 302.638 163.202 302.622 163.18C303.051 163.286 303.242 163.007 303.317 162.823L305.019 156.026C305.038 155.706 304.926 155.301 304.312 155.148C304.336 155.132 303.211 154.876 303.211 154.876L303.615 153.263L306.671 154.017L307.293 151.537L308.808 151.913L308.199 154.345C308.607 154.437 309.016 154.531 309.414 154.63L310.018 152.213L311.534 152.59L310.913 155.072ZM307.287 159.21C308.319 159.484 310.566 160.079 310.957 158.518C311.357 156.92 309.174 156.437 308.106 156.201C307.985 156.174 307.878 156.151 307.791 156.129L307.036 159.145C307.108 159.162 307.192 159.185 307.287 159.21ZM306.117 164.065C307.354 164.391 310.058 165.103 310.488 163.383C310.929 161.623 308.307 161.037 307.027 160.751C306.885 160.719 306.758 160.691 306.655 160.665L305.823 163.989C305.907 164.01 306.006 164.036 306.117 164.065Z" fill="#F7931A"/>
</svg>
